<mxfile host="drawio-plugin" modified="2024-01-11T18:03:12.323Z" agent="5.0 (Windows NT 6.2; Win64; x64) AppleWebKit/537.36 (KHTML, like Gecko) Chrome/104.0.5112.102 Safari/537.36" etag="Yk1gDkmy4TqxzmLlNjXi" version="20.5.3" type="embed"><diagram id="ZjveTkKxMF2Qi2X6C6Os" name="Page-1"><mxGraphModel dx="698" dy="563" grid="1" gridSize="10" guides="1" tooltips="1" connect="1" arrows="1" fold="1" page="1" pageScale="1" pageWidth="850" pageHeight="1100" math="0" shadow="0"><root><mxCell id="0"/><mxCell id="1" parent="0"/><mxCell id="20" value="«interface»&lt;br&gt;&lt;b&gt;Office&lt;/b&gt;" style="html=1;fillColor=#60a917;fontColor=#ffffff;strokeColor=#2D7600;" vertex="1" parent="1"><mxGeometry x="270" y="10" width="170" height="30" as="geometry"/></mxCell><mxCell id="21" value="&lt;p style=&quot;margin: 4px 0px 0px;&quot;&gt;+ method:accept(Visitors) void&lt;br&gt;&lt;br&gt;&lt;/p&gt;" style="verticalAlign=top;align=left;overflow=fill;fontSize=12;fontFamily=Helvetica;html=1;fillColor=#6d8764;fontColor=#ffffff;strokeColor=#3A5431;" vertex="1" parent="1"><mxGeometry x="270" y="40" width="170" height="20" as="geometry"/></mxCell><mxCell id="22" value="Room1" style="swimlane;fontStyle=1;align=center;verticalAlign=top;childLayout=stackLayout;horizontal=1;startSize=26;horizontalStack=0;resizeParent=1;resizeParentMax=0;resizeLast=0;collapsible=1;marginBottom=0;fillColor=#1ba1e2;fontColor=#ffffff;strokeColor=#006EAF;" vertex="1" parent="1"><mxGeometry x="20" y="100" width="180" height="46" as="geometry"/></mxCell><mxCell id="31" value="&lt;p style=&quot;margin: 4px 0px 0px;&quot;&gt;+ method:accept(Visitors) void&lt;br&gt;&lt;br&gt;&lt;/p&gt;" style="verticalAlign=top;align=left;overflow=fill;fontSize=12;fontFamily=Helvetica;html=1;fillColor=#6d8764;fontColor=#ffffff;strokeColor=#3A5431;" vertex="1" parent="22"><mxGeometry y="26" width="180" height="20" as="geometry"/></mxCell><mxCell id="25" value="Room2" style="swimlane;fontStyle=1;align=center;verticalAlign=top;childLayout=stackLayout;horizontal=1;startSize=26;horizontalStack=0;resizeParent=1;resizeParentMax=0;resizeLast=0;collapsible=1;marginBottom=0;fillColor=#1ba1e2;fontColor=#ffffff;strokeColor=#006EAF;" vertex="1" parent="1"><mxGeometry x="255" y="100" width="180" height="46" as="geometry"/></mxCell><mxCell id="32" value="&lt;p style=&quot;margin: 4px 0px 0px;&quot;&gt;+ method:accept(Visitors) void&lt;br&gt;&lt;br&gt;&lt;/p&gt;" style="verticalAlign=top;align=left;overflow=fill;fontSize=12;fontFamily=Helvetica;html=1;fillColor=#6d8764;fontColor=#ffffff;strokeColor=#3A5431;" vertex="1" parent="25"><mxGeometry y="26" width="180" height="20" as="geometry"/></mxCell><mxCell id="28" value="Room3" style="swimlane;fontStyle=1;align=center;verticalAlign=top;childLayout=stackLayout;horizontal=1;startSize=26;horizontalStack=0;resizeParent=1;resizeParentMax=0;resizeLast=0;collapsible=1;marginBottom=0;fillColor=#1ba1e2;fontColor=#ffffff;strokeColor=#006EAF;" vertex="1" parent="1"><mxGeometry x="475" y="100" width="180" height="46" as="geometry"/></mxCell><mxCell id="33" value="&lt;p style=&quot;margin: 4px 0px 0px;&quot;&gt;+ method:accept(Visitors) void&lt;br&gt;&lt;br&gt;&lt;/p&gt;" style="verticalAlign=top;align=left;overflow=fill;fontSize=12;fontFamily=Helvetica;html=1;fillColor=#6d8764;fontColor=#ffffff;strokeColor=#3A5431;" vertex="1" parent="28"><mxGeometry y="26" width="180" height="20" as="geometry"/></mxCell><mxCell id="34" value="" style="endArrow=block;dashed=1;endFill=0;endSize=12;html=1;rounded=0;fillColor=#60a917;strokeColor=#80FF00;entryX=0;entryY=0.75;entryDx=0;entryDy=0;" edge="1" parent="1" target="20"><mxGeometry width="160" relative="1" as="geometry"><mxPoint x="130.1400000000001" y="96" as="sourcePoint"/><mxPoint x="181.18000000000006" y="70" as="targetPoint"/><Array as="points"><mxPoint x="130" y="96.39999999999998"/></Array></mxGeometry></mxCell><mxCell id="35" value="" style="endArrow=block;dashed=1;endFill=0;endSize=12;html=1;rounded=0;fillColor=#60a917;strokeColor=#80FF00;" edge="1" parent="1"><mxGeometry width="160" relative="1" as="geometry"><mxPoint x="510.1400000000001" y="106" as="sourcePoint"/><mxPoint x="440" y="30" as="targetPoint"/><Array as="points"><mxPoint x="510" y="106.39999999999998"/></Array></mxGeometry></mxCell><mxCell id="36" value="" style="endArrow=block;dashed=1;endFill=0;endSize=12;html=1;rounded=0;fillColor=#60a917;strokeColor=#80FF00;entryX=0.34;entryY=1.08;entryDx=0;entryDy=0;entryPerimeter=0;" edge="1" parent="1" target="21"><mxGeometry width="160" relative="1" as="geometry"><mxPoint x="320.1400000000001" y="96" as="sourcePoint"/><mxPoint x="371.18000000000006" y="70" as="targetPoint"/><Array as="points"><mxPoint x="320" y="96.39999999999998"/></Array></mxGeometry></mxCell><mxCell id="37" value="«interface»&lt;br&gt;&lt;b&gt;Visitors&lt;/b&gt;" style="html=1;fillColor=#60a917;fontColor=#ffffff;strokeColor=#2D7600;" vertex="1" parent="1"><mxGeometry x="45" y="240" width="165" height="30" as="geometry"/></mxCell><mxCell id="38" value="&lt;p style=&quot;margin: 4px 0px 0px;&quot;&gt;+ method:visit(Room1)&amp;nbsp; &amp;nbsp; &amp;nbsp;void&lt;br&gt;&lt;br&gt;&lt;/p&gt;" style="verticalAlign=top;align=left;overflow=fill;fontSize=12;fontFamily=Helvetica;html=1;fillColor=#6d8764;fontColor=#ffffff;strokeColor=#3A5431;" vertex="1" parent="1"><mxGeometry x="45" y="270" width="165" height="20" as="geometry"/></mxCell><mxCell id="39" value="&lt;p style=&quot;margin: 4px 0px 0px;&quot;&gt;+ method:visit(Room2)&amp;nbsp; &amp;nbsp; &amp;nbsp;void&lt;br&gt;&lt;br&gt;&lt;/p&gt;" style="verticalAlign=top;align=left;overflow=fill;fontSize=12;fontFamily=Helvetica;html=1;fillColor=#6d8764;fontColor=#ffffff;strokeColor=#3A5431;" vertex="1" parent="1"><mxGeometry x="45" y="290" width="165" height="20" as="geometry"/></mxCell><mxCell id="40" value="&lt;p style=&quot;margin: 4px 0px 0px;&quot;&gt;+ method:visit(Room3)&amp;nbsp; &amp;nbsp; &amp;nbsp;void&lt;br&gt;&lt;br&gt;&lt;/p&gt;" style="verticalAlign=top;align=left;overflow=fill;fontSize=12;fontFamily=Helvetica;html=1;fillColor=#6d8764;fontColor=#ffffff;strokeColor=#3A5431;" vertex="1" parent="1"><mxGeometry x="45" y="310" width="165" height="20" as="geometry"/></mxCell><mxCell id="41" value="Cleaner" style="swimlane;fontStyle=1;align=center;verticalAlign=top;childLayout=stackLayout;horizontal=1;startSize=26;horizontalStack=0;resizeParent=1;resizeParentMax=0;resizeLast=0;collapsible=1;marginBottom=0;fillColor=#1ba1e2;fontColor=#ffffff;strokeColor=#006EAF;" vertex="1" parent="1"><mxGeometry x="310" y="241" width="180" height="46" as="geometry"/></mxCell><mxCell id="44" value="&lt;p style=&quot;margin: 4px 0px 0px;&quot;&gt;+ method:visit(Room1)&amp;nbsp; &amp;nbsp; &amp;nbsp;void&lt;br&gt;&lt;br&gt;&lt;/p&gt;" style="verticalAlign=top;align=left;overflow=fill;fontSize=12;fontFamily=Helvetica;html=1;fillColor=#6d8764;fontColor=#ffffff;strokeColor=#3A5431;" vertex="1" parent="41"><mxGeometry y="26" width="180" height="20" as="geometry"/></mxCell><mxCell id="45" value="&lt;p style=&quot;margin: 4px 0px 0px;&quot;&gt;+ method:visit(Room2)&amp;nbsp; &amp;nbsp; &amp;nbsp;void&lt;br&gt;&lt;br&gt;&lt;/p&gt;" style="verticalAlign=top;align=left;overflow=fill;fontSize=12;fontFamily=Helvetica;html=1;fillColor=#6d8764;fontColor=#ffffff;strokeColor=#3A5431;" vertex="1" parent="1"><mxGeometry x="310" y="287" width="180" height="20" as="geometry"/></mxCell><mxCell id="46" value="&lt;p style=&quot;margin: 4px 0px 0px;&quot;&gt;+ method:visit(Room3)&amp;nbsp; &amp;nbsp; &amp;nbsp;void&lt;br&gt;&lt;br&gt;&lt;/p&gt;" style="verticalAlign=top;align=left;overflow=fill;fontSize=12;fontFamily=Helvetica;html=1;fillColor=#6d8764;fontColor=#ffffff;strokeColor=#3A5431;" vertex="1" parent="1"><mxGeometry x="310" y="307" width="180" height="20" as="geometry"/></mxCell><mxCell id="47" value="" style="endArrow=block;dashed=1;endFill=0;endSize=12;html=1;rounded=0;fillColor=#60a917;strokeColor=#80FF00;entryX=1;entryY=0;entryDx=0;entryDy=0;entryPerimeter=0;" edge="1" parent="1" target="38"><mxGeometry width="160" relative="1" as="geometry"><mxPoint x="310" y="290" as="sourcePoint"/><mxPoint x="220" y="280" as="targetPoint"/><Array as="points"><mxPoint x="310" y="290"/></Array></mxGeometry></mxCell></root></mxGraphModel></diagram></mxfile>